<?xml version="1.0" standalone="no"?>
<!DOCTYPE svg PUBLIC "-//W3C//DTD SVG 20010904//EN"
 "http://www.w3.org/TR/2001/REC-SVG-20010904/DTD/svg10.dtd">
<svg version="1.0" xmlns="http://www.w3.org/2000/svg"
 width="1024.000000pt" height="1024.000000pt" viewBox="0 0 1024.000000 1024.000000"
 preserveAspectRatio="xMidYMid meet">
<metadata>
Created by potrace 1.14, written by Peter Selinger 2001-2017
</metadata>
<g transform="translate(0.000000,1024.000000) scale(0.100000,-0.100000)"
fill="#000000" stroke="none">
<path d="M7387 7614 c-1 -1 -47 -4 -102 -7 -55 -4 -109 -8 -120 -10 -11 -3
-45 -8 -75 -13 -30 -4 -57 -8 -60 -9 -3 -1 -25 -5 -50 -9 -232 -39 -568 -171
-787 -307 -361 -227 -672 -539 -862 -864 -149 -255 -254 -551 -287 -810 -3
-22 -7 -46 -9 -53 -10 -30 -20 -210 -20 -362 0 -242 11 -354 59 -595 40 -204
174 -530 301 -734 192 -310 482 -612 775 -806 25 -16 47 -32 50 -35 6 -7 67
-42 160 -93 200 -109 481 -204 690 -233 19 -2 44 -6 55 -9 119 -25 578 -25
750 0 17 3 46 7 65 9 269 37 504 107 725 216 265 131 509 346 586 515 25 55
31 76 44 145 6 31 6 1543 0 1625 -17 227 -92 353 -238 398 -130 39 -154 41
-832 41 -363 0 -687 -4 -720 -8 -72 -9 -170 -42 -208 -70 -74 -54 -103 -166
-105 -396 -1 -239 20 -328 93 -402 45 -46 125 -77 218 -85 39 -3 197 -6 351
-7 l281 -1 1 -356 0 -356 -75 -26 c-337 -117 -713 -123 -989 -17 -312 120
-615 404 -753 707 -165 365 -163 829 6 1163 114 226 364 462 606 573 80 37
219 83 283 93 21 3 48 8 60 11 38 11 350 12 401 1 217 -43 324 -83 461 -173
45 -29 134 -79 197 -111 101 -50 123 -57 183 -60 115 -5 223 53 355 192 177
187 285 399 274 540 -9 120 -75 208 -245 325 -391 270 -766 413 -1195 455 -51
5 -294 12 -298 8z"/>
<path d="M1389 7526 c-2 -2 -26 -7 -54 -10 -71 -9 -164 -42 -218 -76 -54 -34
-86 -79 -124 -175 l-28 -70 -2 -2025 c-2 -2171 -3 -2118 47 -2234 61 -144 245
-219 535 -219 204 0 336 28 430 93 64 44 123 154 141 261 4 24 7 251 8 504 l1
460 420 1 c231 1 463 4 516 8 l95 6 124 -293 c67 -160 131 -310 140 -332 10
-22 62 -143 116 -270 117 -273 146 -326 215 -389 87 -79 117 -90 244 -90 97 0
121 4 205 32 207 71 407 188 472 276 122 165 103 274 -143 814 -16 35 -29 65
-29 67 0 3 -13 33 -29 67 -34 75 -167 382 -226 524 l-42 101 54 59 c250 269
387 578 429 969 8 76 8 336 0 393 -3 23 -9 61 -12 85 -53 392 -276 795 -569
1031 -244 196 -515 334 -770 390 -195 44 -214 44 -1096 45 -465 1 -848 -1
-850 -3z m1699 -1180 c189 -51 346 -177 405 -326 34 -88 45 -151 42 -263 -7
-267 -142 -437 -425 -533 -51 -18 -91 -19 -520 -19 l-465 0 0 580 0 580 450
-1 c390 -1 458 -3 513 -18z"/>
</g>
</svg>
